<?xml version="1.0" encoding="UTF-8"?>
<svg version="1.1" viewBox="0 0 72 72" xmlns="http://www.w3.org/2000/svg">
 <path d="m8 72h56c4.4 0 8-3.6 8-8v-56c0-4.4-3.6-8-8-8h-56c-4.4 0-8 3.6-8 8v56c0 4.4 3.6 8 8 8z" fill-rule="evenodd"/>
 <path d="m36 61c4.9 0 10-1.6 14-4.5l-3.7-5.1h-.68c-2.8 1.9-6.4 3-9.9 3-10 0-18-8.1-18-18s8-18 18-18c10 0 18 8.2 18 18 0 5.1-1.5 7-3.3 7-2 0-2.7-1.7-2.7-5.1v-3.6c0-8.2-4.8-13-12-13-5.9 0-11 3.5-12 8.7l6.1 1.4h.62c.43-2.2 2.6-3.6 5.1-3.6 2.8 0 5.2 1.9 5.5 4.5l-7.3.62c-6.4.56-10 3.6-10 9 0 4.8 4.2 8.6 9.8 8.6 3.9 0 7.3-1.7 9.6-4.3 1.4 2.3 3.9 3.8 6.9 3.8 6.7 0 11-6 11-14 0-14-11-25-25-25s-25 11-25 25 11 25 25 25zm-4.6-20c0-1.7 1.3-2.6 3.9-2.8l6.4-.56c-.31 3.1-3.3 5.9-6.5 5.9-2.2 0-3.7-.99-3.7-2.5z" fill="#fff"/>
</svg>
